<?xml version="1.0" encoding="UTF-8" standalone="no"?>
<!-- Generator: Adobe Illustrator 18.1.1, SVG Export Plug-In . SVG Version: 6.00 Build 0)  -->

<svg
   xmlns:dc="http://purl.org/dc/elements/1.1/"
   xmlns:cc="http://creativecommons.org/ns#"
   xmlns:rdf="http://www.w3.org/1999/02/22-rdf-syntax-ns#"
   xmlns:svg="http://www.w3.org/2000/svg"
   xmlns="http://www.w3.org/2000/svg"
   xmlns:xlink="http://www.w3.org/1999/xlink"
   xmlns:sodipodi="http://sodipodi.sourceforge.net/DTD/sodipodi-0.dtd"
   xmlns:inkscape="http://www.inkscape.org/namespaces/inkscape"
   version="1.1"
   id="Proxima"
   x="0px"
   y="0px"
   viewBox="0 0 80 80"
   enable-background="new 0 0 400 119"
   xml:space="preserve"
   inkscape:version="0.48.5 r10040"
   width="100%"
   height="100%"
   sodipodi:docname="logo.svg"><metadata
   id="metadata3028"><rdf:RDF><cc:Work
       rdf:about=""><dc:format>image/svg+xml</dc:format><dc:type
         rdf:resource="http://purl.org/dc/dcmitype/StillImage" /></cc:Work></rdf:RDF></metadata><defs
   id="defs3026">
	<defs
   id="defs2988">
		<rect
   height="119"
   width="400"
   id="SVGID_1_"
   x="0"
   y="0" />
	</defs>
	<clipPath
   id="SVGID_2_">
		<use
   id="use2992"
   overflow="visible"
   xlink:href="#SVGID_1_"
   style="overflow:visible"
   x="0"
   y="0"
   width="400"
   height="119" />
	</clipPath>
	
	
	
	
	
	
	
	
	
	
	
</defs><sodipodi:namedview
   pagecolor="#ffffff"
   bordercolor="#666666"
   borderopacity="1"
   objecttolerance="10"
   gridtolerance="10"
   guidetolerance="10"
   inkscape:pageopacity="0"
   inkscape:pageshadow="2"
   inkscape:window-width="2560"
   inkscape:window-height="1377"
   id="namedview3024"
   showgrid="false"
   inkscape:zoom="3.03"
   inkscape:cx="152.36314"
   inkscape:cy="21.340943"
   inkscape:window-x="1432"
   inkscape:window-y="448"
   inkscape:window-maximized="1"
   inkscape:current-layer="Proxima" />
<g
   id="g3016"
   clip-path="url(#SVGID_2_)"
   transform="translate(-28.3,-19.2)">
		<path
   style="fill:#fa3d38"
   inkscape:connector-curvature="0"
   id="path3018"
   d="m 71.2,60.5 c 0,0 4,-18.8 -13,-22.9 -7.7,-1.8 -7.1,1.9 -23.9,-3.9 0,0 4.7,10.5 13.1,12.3 1.7,0.4 3.5,0.4 5.4,0.4 0,0 0,0 0,0 0,0 0,0 0.1,0 0.3,0 0.6,0 0.9,0 0.3,0 0.6,0 0.9,0 0,0 0.1,0 0.1,0 0.4,0 0.7,0 1.1,0 0,0 0.1,0 0.1,0 0.7,0 1.5,0 2.2,0.1 0,0 0,0 0.1,0 0.4,0 0.7,0.1 1.1,0.1 0,0 0,0 0,0 v 0 c 0,0 0.1,0 0.1,0 1.6,0.2 3.1,0.7 4.4,1.5 2.7,2.1 4.5,6.1 4.3,10.7 -0.2,3.7 -1.6,6.9 -3.6,9 0.7,-1.3 1.1,-2.9 1.2,-4.6 0.2,-4.7 -2.5,-8.7 -5.9,-8.8 -0.6,0 -1.2,0.1 -1.7,0.2 0.2,1.9 0.5,4 0.5,4.2 0,0.3 -1.6,-1.2 -3,-2.6 -1.4,1.5 -2.4,3.8 -2.5,6.4 -0.1,2 0.4,3.9 1.2,5.5 -2.3,-2.2 -3.8,-5.9 -3.6,-10.1 0.2,-4.9 2.6,-8.9 5.8,-10.6 -0.5,0 -1,0 -1.5,0 -0.3,0 -0.6,0 -0.9,0 -0.3,0 -0.6,0 -0.9,0 -1,0 -2.2,0 -3.3,-0.1 -1.9,2.6 -3.1,6.1 -3.3,9.9 -0.4,8.7 4.9,16 11.9,16.3 5.8,0.3 11.3,-5.4 12.6,-13 l 0,0 z" />
		<path
   style="fill:#fa3d38"
   inkscape:connector-curvature="0"
   id="path3020"
   d="m 73,58.5 c -0.6,5.5 -3,10.2 -6.3,13.2 0.6,0.9 1.8,2.9 2.8,4.4 2.4,3.5 6.6,9.1 6.6,9.1 4.4,-5 6.7,-13.9 5,-17.7 -1.3,-3 -5.6,-7.4 -8.1,-9 z" />
		<path
   style="fill:#fa3d38"
   inkscape:connector-curvature="0"
   id="path3022"
   d="m 84.3,46.5 c 0.4,-0.1 0.8,-0.1 1.2,-0.2 4.6,-0.3 5.1,1.2 10.2,-1.6 5.1,-2.7 6.9,-9.2 6.9,-9.2 0,0 -4.6,2.2 -8.1,2.7 -4.6,0.6 -8.8,-0.8 -14.4,3 -5.9,4 -5.6,15.4 -5.6,16.8 1.4,1 2.9,2.5 4.4,4.1 0,0 0.1,0.1 0.1,0.1 0.1,0.1 0.3,0.3 0.4,0.4 0.1,0.1 0.1,0.1 0.2,0.2 0.1,0.1 0.2,0.3 0.3,0.4 0.1,0.1 0.1,0.2 0.2,0.3 0.1,0.1 0.2,0.2 0.3,0.4 0.1,0.1 0.2,0.2 0.2,0.3 0.1,0.1 0.2,0.2 0.2,0.3 0.1,0.1 0.2,0.2 0.2,0.3 0.1,0.1 0.1,0.2 0.2,0.3 0.1,0.1 0.1,0.2 0.2,0.3 0.1,0.1 0.1,0.2 0.2,0.3 0.1,0.1 0.1,0.3 0.2,0.4 0,0.1 0.1,0.1 0.1,0.2 0.1,0.2 0.2,0.4 0.3,0.6 0.1,0.2 0.2,0.4 0.2,0.7 0,0.1 0,0.1 0.1,0.2 0,0.2 0.1,0.3 0.1,0.5 0.1,0.5 0.2,1 0.2,1.5 0.9,0.3 1.8,0.4 2.7,0.4 6,-0.1 10.7,-6.2 10.6,-13.8 -0.1,-3.6 -1.2,-6.9 -3.1,-9.3 -1.1,0.3 -1.9,0.4 -2.8,0.4 -0.5,0 -1,0 -1.5,-0.1 2.3,1.7 3.9,5.2 3.8,9.2 -0.1,3.7 -1.5,6.9 -3.6,8.7 0.7,-1.2 1.2,-2.8 1.3,-4.4 0.3,-4.5 -2.1,-8.3 -5.4,-8.5 -0.9,-0.1 -1.8,0.2 -2.6,0.6 0.2,1.5 0.5,3.8 0.5,4 0,0.2 -1.5,-1.2 -2.5,-2.3 -0.9,1.2 -1.5,2.7 -1.8,4.3 -0.1,-0.8 -0.2,-1.7 -0.2,-2.6 0.2,-4.9 2.8,-9 6.1,-9.9 z" />
	</g>
</svg>